<svg width="14" height="14" viewBox="0 0 14 14" fill="none" xmlns="http://www.w3.org/2000/svg">
<path d="M10.5 2.77084H3.50001C2.45297 2.77084 1.60417 3.61964 1.60417 4.66668V10.5C1.60417 11.547 2.45297 12.3958 3.50001 12.3958H10.5C11.547 12.3958 12.3958 11.547 12.3958 10.5V4.66668C12.3958 3.61964 11.547 2.77084 10.5 2.77084Z" stroke="black" stroke-width="1.1"/>
<path d="M3.9375 1.60416V3.64582" stroke="black" stroke-width="1.1" stroke-linecap="round"/>
<path d="M2.1875 5.39584H11.8125" stroke="black" stroke-width="1.1" stroke-linecap="round"/>
<path d="M10.3542 1.60416V3.64582" stroke="black" stroke-width="1.1" stroke-linecap="round"/>
<path d="M4.8125 8.16666C5.05412 8.16666 5.25 7.97078 5.25 7.72916C5.25 7.48753 5.05412 7.29166 4.8125 7.29166C4.57088 7.29166 4.375 7.48753 4.375 7.72916C4.375 7.97078 4.57088 8.16666 4.8125 8.16666Z" fill="black"/>
<path d="M7.14583 8.16666C7.38745 8.16666 7.58333 7.97078 7.58333 7.72916C7.58333 7.48753 7.38745 7.29166 7.14583 7.29166C6.9042 7.29166 6.70833 7.48753 6.70833 7.72916C6.70833 7.97078 6.9042 8.16666 7.14583 8.16666Z" fill="black"/>
<path d="M9.47917 8.16666C9.7208 8.16666 9.91667 7.97078 9.91667 7.72916C9.91667 7.48753 9.7208 7.29166 9.47917 7.29166C9.23755 7.29166 9.04167 7.48753 9.04167 7.72916C9.04167 7.97078 9.23755 8.16666 9.47917 8.16666Z" fill="black"/>
<path d="M4.8125 10.5C5.05412 10.5 5.25 10.3041 5.25 10.0625C5.25 9.82088 5.05412 9.625 4.8125 9.625C4.57088 9.625 4.375 9.82088 4.375 10.0625C4.375 10.3041 4.57088 10.5 4.8125 10.5Z" fill="black"/>
<path d="M7.14583 10.5C7.38745 10.5 7.58333 10.3041 7.58333 10.0625C7.58333 9.82088 7.38745 9.625 7.14583 9.625C6.9042 9.625 6.70833 9.82088 6.70833 10.0625C6.70833 10.3041 6.9042 10.5 7.14583 10.5Z" fill="black"/>
<path d="M9.47917 10.5C9.7208 10.5 9.91667 10.3041 9.91667 10.0625C9.91667 9.82088 9.7208 9.625 9.47917 9.625C9.23755 9.625 9.04167 9.82088 9.04167 10.0625C9.04167 10.3041 9.23755 10.5 9.47917 10.5Z" fill="black"/>
</svg>
